<?xml version="1.0" encoding="UTF-8" standalone="no"?>
<svg
   width="48pt"
   height="48pt"
   viewBox="0 0 16.933334 16.933333"
   version="1.1"
   id="svg979"
   inkscape:version="1.1 (c68e22c387, 2021-05-23)"
   sodipodi:docname="19 - No Waste Factory.svg"
   inkscape:export-filename="C:\Users\RainBoyz\Desktop\ECOLOGY HABIB\EXPANDED ICON\No Waste Factory.png"
   inkscape:export-xdpi="768"
   inkscape:export-ydpi="768"
   xmlns:inkscape="http://www.inkscape.org/namespaces/inkscape"
   xmlns:sodipodi="http://sodipodi.sourceforge.net/DTD/sodipodi-0.dtd"
   xmlns="http://www.w3.org/2000/svg"
   xmlns:svg="http://www.w3.org/2000/svg"
   xmlns:rdf="http://www.w3.org/1999/02/22-rdf-syntax-ns#"
   xmlns:cc="http://creativecommons.org/ns#"
   xmlns:dc="http://purl.org/dc/elements/1.1/">
  <defs
     id="defs973" />
  <sodipodi:namedview
     id="base"
     pagecolor="#ffffff"
     bordercolor="#666666"
     borderopacity="1.0"
     inkscape:pageopacity="0.0"
     inkscape:pageshadow="2"
     inkscape:zoom="1.0253906"
     inkscape:cx="15.11619"
     inkscape:cy="33.158095"
     inkscape:document-units="pt"
     inkscape:current-layer="layer1"
     showgrid="false"
     units="pt"
     inkscape:window-width="1366"
     inkscape:window-height="716"
     inkscape:window-x="-8"
     inkscape:window-y="-8"
     inkscape:window-maximized="1"
     inkscape:document-rotation="0"
     inkscape:snap-bbox="true"
     inkscape:bbox-nodes="true"
     inkscape:snap-nodes="false"
     inkscape:pagecheckerboard="0">
    <inkscape:grid
       type="xygrid"
       id="grid1526" />
    <sodipodi:guide
       position="0.97013909,15.963209"
       orientation="56.666615,0"
       id="guide1528"
       inkscape:locked="false" />
    <sodipodi:guide
       position="0.97013909,0.97016731"
       orientation="0,56.666667"
       id="guide1530"
       inkscape:locked="false" />
    <sodipodi:guide
       position="15.963195,0.97016731"
       orientation="-56.666615,0"
       id="guide1532"
       inkscape:locked="false" />
    <sodipodi:guide
       position="15.963195,15.963209"
       orientation="0,-56.666667"
       id="guide1534"
       inkscape:locked="false" />
  </sodipodi:namedview>
  <metadata
     id="metadata976">
    <rdf:RDF>
      <cc:Work
         rdf:about="">
        <dc:format>image/svg+xml</dc:format>
        <dc:type
           rdf:resource="http://purl.org/dc/dcmitype/StillImage" />
        <dc:title />
      </cc:Work>
    </rdf:RDF>
  </metadata>
  <g
     inkscape:label="Layer 1"
     inkscape:groupmode="layer"
     id="layer1"
     transform="translate(0,-280.06668)">
    <path
       id="path2324"
       style="color:#000000;font-style:normal;font-variant:normal;font-weight:normal;font-stretch:normal;font-size:medium;line-height:normal;font-family:sans-serif;font-variant-ligatures:normal;font-variant-position:normal;font-variant-caps:normal;font-variant-numeric:normal;font-variant-alternates:normal;font-variant-east-asian:normal;font-feature-settings:normal;font-variation-settings:normal;text-indent:0;text-align:start;text-decoration:none;text-decoration-line:none;text-decoration-style:solid;text-decoration-color:#000000;letter-spacing:normal;word-spacing:normal;text-transform:none;writing-mode:lr-tb;direction:ltr;text-orientation:mixed;dominant-baseline:auto;baseline-shift:baseline;text-anchor:start;white-space:normal;shape-padding:0;shape-margin:0;inline-size:0;clip-rule:nonzero;display:inline;overflow:visible;visibility:visible;opacity:1;isolation:auto;mix-blend-mode:normal;color-interpolation:sRGB;color-interpolation-filters:linearRGB;solid-color:#000000;solid-opacity:1;vector-effect:none;fill:#000000;fill-opacity:1;fill-rule:nonzero;stroke:none;stroke-width:0.651817;stroke-linecap:round;stroke-linejoin:round;stroke-miterlimit:4;stroke-dasharray:none;stroke-dashoffset:0;stroke-opacity:1;color-rendering:auto;image-rendering:auto;shape-rendering:auto;text-rendering:auto;enable-background:accumulate;stop-color:#000000;stop-opacity:1"
       d="m 10.720019,287.25398 c 0.557417,0.53819 1.313684,0.87142 2.147047,0.87142 1.706092,0 3.096136,-1.39003 3.096129,-3.09612 0,-1.70609 -1.390041,-3.09613 -3.096129,-3.09613 -1.706084,0 -3.0961259,1.39004 -3.0961284,3.09613 -3.7e-6,0.83412 0.3336454,1.59139 0.8726974,2.14896 z m 2.147047,-4.66901 c 0.559334,0 1.072037,0.18828 1.483137,0.50222 l -3.425217,3.42522 c -0.313947,-0.4111 -0.502232,-0.92379 -0.502232,-1.48313 3e-6,-1.35382 1.090496,-2.44431 2.444312,-2.44431 z m 1.94272,0.96117 c 0.313807,0.41105 0.501593,0.92395 0.501593,1.48314 6e-6,1.35382 -1.090489,2.44432 -2.444313,2.44432 -0.559196,0 -1.072084,-0.18779 -1.483136,-0.5016 z m -5.3736669,11.20051 c 0.3910641,0.27551 0.9081169,0.27554 1.2991779,0 0.119889,-0.0845 0.431363,-0.0845 0.551242,0 0.391063,0.27551 0.908119,0.27554 1.299177,0 0.119902,-0.0845 0.430724,-0.0845 0.550606,0 0.391064,0.27551 0.90812,0.27554 1.299178,0 0.119889,-0.0845 0.431366,-0.0845 0.551245,0 l 0.461489,0.32718 c 0.147548,0.10421 0.351675,0.0685 0.455127,-0.0796 0.103741,-0.14743 0.06808,-0.35107 -0.07957,-0.45449 l -0.462128,-0.32527 c -0.39106,-0.27554 -0.910023,-0.2755 -1.301087,0 -0.119877,0.0845 -0.428801,0.0845 -0.548697,0 -0.24168,-0.17027 -0.532456,-0.23434 -0.811589,-0.19415 -0.01539,-2.34078 -0.42113,-4.00543 -1.288991,-5.10822 -0.840149,-1.0676 -2.1015439,-1.54633 -3.6715626,-1.59263 -0.051341,-0.48462 -0.1324483,-0.97603 -0.2495252,-1.47486 0,-0.35612 -0.2956825,-0.65182 -0.6518158,-0.65182 H 6.185946 c -0.1802648,0 -0.340077,0.0668 -0.4665833,0.18524 -0.07892,0.0739 -0.1409032,0.1821 -0.1693191,0.30299 H 2.9262275 v -1.62827 c 6.844e-4,-0.17998 -0.1446488,-0.32645 -0.3246353,-0.32718 l -1.3042698,5e-5 c -0.1809814,-6.6e-4 -0.32787012,0.1462 -0.32718119,0.32717 v 8.79762 c -6.8437e-4,0.18098 0.14619859,0.32787 0.32718119,0.32718 h 1.3042698 c 0.1799877,-6.5e-4 0.3253223,-0.1472 0.3246353,-0.32718 v -1.30108 h 2.6320912 c 0.074313,0.27807 0.3283431,0.48822 0.6276273,0.48822 h 0.6524526 c 0.356116,0 0.6518158,-0.2957 0.6518158,-0.65182 0.033554,-0.15252 0.061096,-0.30699 0.08976,-0.46085 0.3162101,0.0669 0.5307319,0.26297 0.7186509,0.58562 0.1667866,0.28635 0.2850658,0.673 0.3647373,1.09802 -0.3332998,-0.0484 -0.6683598,0.0274 -0.9325285,0.20816 -0.3710858,0.25392 -0.5687063,0.76445 -0.4035691,1.28644 -0.070803,0.0306 -0.1400521,0.0657 -0.2049631,0.11136 -0.1198768,0.0845 -0.4288009,0.0845 -0.5486999,0 -0.3910567,-0.27553 -0.9106569,-0.2755 -1.301721,0 -0.1198768,0.0845 -0.4288021,0.0845 -0.5486974,0 -0.3910606,-0.27553 -0.9100228,-0.2755 -1.301087,0 -0.1198817,0.0845 -0.4288031,0.0845 -0.5486972,0 -0.3910666,-0.27553 -0.9106582,-0.27553 -1.3017234,0 l -0.4614913,0.32527 c -0.14765337,0.10347 -0.18330488,0.30706 -0.079568,0.45449 0.103419,0.14766 0.3070597,0.1833 0.4544897,0.0796 l 0.4621275,-0.32719 c 0.1198916,-0.0845 0.4307164,-0.0845 0.550607,0 0.391064,0.27553 0.9081168,0.27555 1.2991774,0 0.119894,-0.0845 0.4313615,-0.0845 0.5512435,0 0.391064,0.27553 0.908117,0.27555 1.2991774,0 0.1199014,-0.0845 0.4307249,-0.0845 0.5506054,0 0.3910677,0.27553 0.9081182,0.27555 1.2991786,0 0.1198891,-0.0845 0.431363,-0.0845 0.5512447,0 l 0.2285172,0.16359 c 0.1124738,0.0791 0.262454,0.0791 0.3749217,0 0.3121193,-0.30425 0.4869753,-0.31536 0.784216,-0.16363 z M 1.6225942,284.37747 h 0.6518167 v 8.14833 H 1.6225942 Z m 4.5633518,1.46722 h 0.6524526 c 0.2011052,1.89439 0.3358446,3.86911 0,5.54107 H 6.1935855 c 0.4223513,-1.84315 0.3731035,-3.81824 -0.00764,-5.54108 h 9.8e-6 z m -3.2597185,0.48886 h 2.6486414 c 0.315285,1.55449 0.2995047,3.07128 0.00961,4.56334 H 2.9262285 Z m 4.8644351,1.63845 c 1.4080716,0.0507 2.4129414,0.45832 3.1082244,1.34182 0.944068,1.75209 1.147226,3.44192 1.17122,4.95038 -0.140851,0.0261 -0.322147,0.0111 -0.408021,-0.0496 -0.391061,-0.27554 -0.91066,-0.2755 -1.301723,0 -0.119877,0.0845 -0.4288013,0.0845 -0.5487003,0 -0.5130903,-0.21032 -0.9858891,-0.30765 -1.345007,0.0312 -0.1403033,-0.11418 -0.282989,-0.20252 -0.4659476,-0.21132 -0.1556637,-0.32336 -0.055122,-0.54455 0.098037,-0.67855 0.4390567,-0.3347 0.7645223,-0.0314 1.0560082,0.32461 0.090511,0.15516 0.2895174,0.20784 0.4449396,0.11776 0.1554025,-0.0903 0.208369,-0.28936 0.1183986,-0.44495 -0.096571,-0.16729 -0.2141091,-0.30763 -0.3450029,-0.42011 -0.076284,-0.63392 -0.2210613,-1.2507 -0.5117772,-1.74985 -0.2560993,-0.4397 -0.6596585,-0.7834 -1.1782376,-0.89562 0.1041839,-0.75515 0.1473011,-1.52574 0.1075712,-2.31573 z m -3.396575,0.317 c -0.18099,-6.6e-4 -0.3278899,0.1462 -0.327181,0.32718 7.17e-4,0.17999 0.147187,0.32534 0.327181,0.32464 0.179001,-6.6e-4 0.3239371,-0.14564 0.3246355,-0.32464 7.169e-4,-0.18 -0.1446405,-0.32648 -0.3246355,-0.32718 z m 9.2476464,3.12286 -0.462125,0.46213 c -0.128092,0.12742 -0.128092,0.33471 0,0.46213 0.127414,0.12809 0.334711,0.12809 0.462125,0 l 0.462128,-0.46213 c 0.128092,-0.12741 0.128092,-0.33471 0,-0.46213 -0.154297,-0.14429 -0.324044,-0.12194 -0.462128,0 z m -0.462125,1.34501 c -0.126393,0.12712 -0.126393,0.33246 0,0.45958 l 0.462125,0.46212 c 0.127414,0.1281 0.334714,0.1281 0.462128,0 0.128092,-0.1274 0.128092,-0.33471 0,-0.46212 l -0.462128,-0.45958 c -0.186622,-0.14074 -0.32321,-0.13048 -0.462125,0 z"
       sodipodi:nodetypes="cssssccsccsscsscccssssscccccsscsccsssccccccccccccssccscscsscscscccccsssssscccccccccccccccccccccsccsscccccccsccsscsscccccccccccccccc" />
  </g>
</svg>
