<?xml version="1.0" encoding="UTF-8" standalone="no"?>
<svg
   id="outline"
   viewBox="0 0 340 340"
   version="1.1"
   sodipodi:docname="ignacio_alcorque-24px.svg"
   inkscape:version="1.3.2 (091e20e, 2023-11-25, custom)"
   xmlns:inkscape="http://www.inkscape.org/namespaces/inkscape"
   xmlns:sodipodi="http://sodipodi.sourceforge.net/DTD/sodipodi-0.dtd"
   xmlns="http://www.w3.org/2000/svg"
   xmlns:svg="http://www.w3.org/2000/svg">
  <defs
     id="defs5">
    <rect
       x="150.65421"
       y="148.97196"
       width="1.682243"
       height="26.35514"
       id="rect27" />
    <rect
       x="99.626168"
       y="55.327103"
       width="99.065421"
       height="19.065421"
       id="rect25" />
  </defs>
  <sodipodi:namedview
     id="namedview5"
     pagecolor="#ffffff"
     bordercolor="#000000"
     borderopacity="0.25"
     inkscape:showpageshadow="2"
     inkscape:pageopacity="0.0"
     inkscape:pagecheckerboard="0"
     inkscape:deskcolor="#d1d1d1"
     inkscape:zoom="5.35"
     inkscape:cx="170"
     inkscape:cy="170"
     inkscape:window-width="3840"
     inkscape:window-height="2054"
     inkscape:window-x="3829"
     inkscape:window-y="-11"
     inkscape:window-maximized="1"
     inkscape:current-layer="outline" />
  <title
     id="title1" />
  <path
     d="m 17.340862,107.0618 a 3.4843594,3.9091261 0 0 0 -2.369367,-5.11901 3.5862767,4.023468 0 0 0 -4.232619,2.60835 30.575255,34.30258 0 0 0 -1.2090751,4.89721 24.948007,27.989339 0 0 0 5.2622521,23.28861 25.261604,28.341158 0 0 0 15.33118,9.98874 c -1.455586,7.2788 -1.020045,17.89499 7.165586,25.69076 a 26.592627,29.834445 0 0 0 16.886083,6.99932 32.613605,36.589417 0 0 0 15.285885,-4.04985 c 4.105433,4.78377 14.285859,14.11588 31.253803,14.1139 a 59.153967,66.365235 0 0 0 13.28591,-1.78258 c 1.15237,0.8014 2.33445,1.59687 3.58374,2.37962 a 26.907969,30.188231 0 0 1 13.27967,21.75341 c 1.57495,11.61299 2.52085,30.82341 -1.90069,56.30605 -0.0877,0.44753 -8.94873,44.89725 -34.562277,59.06101 a 3.4895849,3.9149902 0 0 0 -1.608897,5.18549 3.5888899,4.0264 0 0 0 3.278834,2.23011 h 18.11859 a 3.5854053,4.0224906 0 0 0 3.61772,-3.525 3.4843594,3.9091261 0 0 0 -3.46791,-4.29324 h -6.81185 c 20.79029,-19.58867 27.91854,-55.28676 28.26506,-57.08202 4.62722,-26.66417 3.62292,-46.83335 1.96595,-59.05806 A 33.924588,38.060228 0 0 0 120.98663,179.25064 C 99.035022,165.49443 94.310393,148.92356 93.583842,139.50164 a 45.151197,50.655435 0 0 0 12.566348,3.44984 c 6.95484,23.82907 27.84703,28.13596 28.76511,28.31275 a 3.4843594,3.9091261 0 0 0 4.07499,-3.85242 c 0,-13.91746 -0.53835,-28.74963 -0.97649,-38.52925 8.64895,1.30264 28.1754,2.82039 43.07459,-6.60449 a 23.345202,26.191144 0 0 0 11.61937,13.66923 c -3.90851,7.64522 -11.02445,17.49921 -22.68405,20.68901 -0.26133,-4.24824 -0.60276,-11.22801 -0.68115,-18.94751 a 3.4843594,3.9091261 0 0 0 -3.48438,-3.8769 h -0.0402 a 3.444289,3.8641707 0 0 0 -3.44521,3.90228 c 0.12901,12.86198 0.95813,23.44991 0.99576,23.89361 a 3.4843594,3.9091261 0 0 0 3.47126,3.56119 3.6585768,4.1045826 0 0 0 0.43554,-0.0308 c 17.46969,-2.46375 27.29647,-16.62844 32.12668,-26.58898 a 41.794015,46.888989 0 0 0 6.88154,1.06631 c 0.52271,0.0337 1.01927,0.0397 1.5227,0.0504 -0.0874,0.42609 -0.17422,0.85117 -0.27606,1.27043 a 29.852246,33.491432 0 0 1 -11.13429,18.07976 122.42818,137.35301 0 0 0 -13.89306,13.54025 c -9.20563,10.6455 -13.24042,21.48155 -13.08199,35.13622 0.56707,49.07222 13.28147,79.62791 23.84784,96.61987 a 90.540148,101.57765 0 0 0 14.59258,18.48233 h -3.33028 a 3.5854053,4.0224906 0 0 0 -3.61768,3.52509 3.4843594,3.9091261 0 0 0 3.46783,4.29315 h 14.00977 a 3.6089248,4.0488777 0 0 0 3.27007,-2.1774 3.4895849,3.9149902 0 0 0 -1.50262,-5.19421 c -0.10627,-0.0639 -10.7876,-6.51558 -21.45332,-23.85348 -9.8824,-16.06455 -21.77717,-45.0302 -22.31632,-91.79705 -0.13156,-11.42146 3.29619,-20.54734 11.11595,-29.59106 a 114.84357,128.84382 0 0 1 13.04462,-12.70473 36.851452,41.343898 0 0 0 13.71446,-22.3397 c 0.30919,-1.30069 0.55573,-2.62498 0.75087,-3.95893 a 28.347002,31.8027 0 0 0 20.59252,-18.59376 c 6.24315,1.93311 20.14052,5.13461 33.42978,0.66452 a 3.4843594,3.9091261 0 0 0 -2.00351,-7.4879 c -15.22922,5.12287 -32.24773,-1.62713 -32.4149,-1.69361 l -0.0217,-0.007 c -0.009,0 -0.0153,-0.008 -0.0209,-0.0109 a 35.293932,39.596514 0 0 1 -15.08199,-11.78496 3.4843594,3.9091261 0 0 0 -5.56617,4.70367 41.859351,46.962291 0 0 0 15.0567,12.96164 c -2.17776,5.23632 -8.15598,14.98071 -22.29985,14.05919 -14.7214,-0.96072 -18.68842,-10.06604 -19.7259,-14.09825 3.86505,-3.75477 12.09587,-13.71523 9.1464,-28.272782 a 3.4843594,3.9091261 0 0 0 -6.79442,1.732715 c 2.66293,13.143417 -7.70223,21.389797 -8.15431,21.741627 -0.0159,0.0119 -0.0252,0.0268 -0.0394,0.0387 -0.0153,0.0119 -0.0485,0.0328 -0.0715,0.0516 -16.25974,13.61749 -44.12588,7.83487 -45.93262,7.44002 -17.65344,-5.27046 -19.53937,-17.88423 -19.62211,-18.51359 a 3.4845786,3.9093719 0 0 0 -6.91381,0.98314 c 0.0794,0.72119 2.1063,17.10926 22.37914,24.30794 0.39549,8.46029 0.92069,21.81101 1.0384,34.99355 -5.22673,-2.1676 -14.08469,-7.47719 -18.44103,-19.359 a 32.431546,36.385165 0 0 0 5.34496,-1.20689 3.5862767,4.023468 0 0 0 2.57586,-4.57864 3.4843594,3.9091261 0 0 0 -4.41033,-2.96602 c -12.51501,4.18855 -25.021221,-4.03819 -25.139643,-4.11725 -0.01813,-0.0119 -0.03688,-0.0169 -0.05415,-0.0288 a 3.5165894,3.9452851 0 0 0 -0.44169,-0.23062 c -0.07183,-0.0328 -0.140245,-0.0758 -0.213371,-0.10268 a 3.648124,4.0928543 0 0 0 -0.435845,-0.11147 c -0.08709,-0.0189 -0.17414,-0.0513 -0.270868,-0.0629 h -0.02136 a 3.4364501,3.8553758 0 0 0 -1.411244,0.16321 h -0.01 c -23.741608,8.52666 -31.872362,-7.44597 -32.194662,-8.10466 A 3.4843594,3.9091261 0 0 0 54.1341,119.44322 C 44.454494,118.36786 37.565041,114.58489 33.659076,108.20423 27.206826,97.664218 30.680732,83.063639 30.714707,82.925835 a 3.4843594,3.9091261 0 0 0 0.01221,-2.059129 c -3.430353,-14.469627 0.757855,-21.5168 4.536632,-24.813171 a 23.693644,26.582061 0 0 0 5.936478,15.359932 3.4843594,3.9091261 0 0 0 5.209989,-0.01474 3.6228626,4.0645137 0 0 0 -0.139359,-5.355501 17.181377,19.275896 0 0 1 -3.987858,-15.405859 C 48.699238,28.904641 64.606208,31.482706 65.265621,31.598025 a 3.4843594,3.9091261 0 0 0 3.839767,-2.450037 c 1.537476,-4.484751 7.432135,-6.889834 9.563691,-7.435164 0.08711,-0.02145 0.174212,-0.04793 0.26132,-0.07728 8.27536,-2.834115 14.73967,2.856595 14.994947,3.086258 a 3.4843594,3.9091261 0 0 0 4.429449,-0.01179 C 111.10679,12.877087 129.91795,14.583415 141.01646,17.022708 a 66.674087,74.802103 0 0 1 -11.87299,3.442965 3.5793064,4.0156503 0 0 0 -3.04881,4.04106 3.4843594,3.9091261 0 0 0 4.03933,3.698034 c 12.96869,-2.353288 21.11151,-7.622795 22.76499,-8.77012 24.73896,-11.7615856 44.00313,1.276331 44.80541,1.833381 a 3.4791322,3.9032624 0 0 0 3.32585,0.227701 c 13.87122,-7.275868 23.98543,-0.562912 24.39042,-0.286343 a 3.4791322,3.9032624 0 0 0 1.72131,0.593216 c 11.20218,0.460291 19.11608,3.632549 23.51944,9.427832 a 15.369503,17.243153 0 0 1 3.70126,12.342086 c -0.10541,0.560955 -1.49306,6.768648 -11.07248,6.478402 a 3.4686794,3.8915349 0 0 0 -3.5584,4.190584 3.6002129,4.0391042 0 0 0 3.58979,3.630593 c 0.17422,0 0.34845,0 0.52263,0 9.1893,0 14.01413,-4.794536 16.13084,-9.124877 6.24228,1.954567 10.81989,5.400466 13.62905,10.281004 5.04109,8.7584 2.90509,19.539772 2.88509,19.63457 a 3.4843594,3.9091261 0 0 0 0.61759,3.270959 21.049886,23.616005 0 0 1 3.99137,9.870543 15.615149,17.518751 0 0 1 -1.64111,11.697962 5.4007571,6.0591449 0 0 0 -0.096,5.05842 c 1.91651,4.16914 4.46102,11.63951 2.29454,18.73939 -1.70905,5.60182 -6.14467,10.2097 -13.18307,13.69667 a 3.4843594,3.9091261 0 0 0 -1.93641,2.47534 c -0.2187,0.83859 -5.64286,20.44771 -29.9742,14.25465 a 3.4843594,3.9091261 0 0 0 -3.47654,1.34773 c -0.12101,0.16711 -12.34417,16.71153 -31.06303,12.87372 a 3.4843594,3.9091261 0 0 0 -4.09411,3.49965 3.6036979,4.0430136 0 0 0 3.04267,4.2316 38.676391,43.391299 0 0 0 6.78761,0.68416 c 15.12377,0 25.57166,-10.25661 29.27384,-14.53908 24.42963,5.17085 33.34969,-12.52972 35.58399,-18.3543 8.13349,-4.34988 13.39026,-10.27611 15.63528,-17.63412 2.78739,-9.1297 0.17848,-18.16861 -2.17782,-23.68238 a 22.539449,25.28716 0 0 0 1.86748,-15.83195 27.73637,31.117622 0 0 0 -4.36661,-11.690244 c 0.54957,-4.15345 1.20375,-14.539991 -4.06544,-23.760642 -3.85277,-6.735415 -9.9591,-11.372612 -18.191,-13.814838 A 22.64834,25.409323 0 0 0 256.08474,26.313767 C 250.49846,18.845383 241.13336,14.714424 228.23953,14.029345 225.10347,12.195965 214.0268,6.9088717 199.73747,13.591516 a 58.303779,65.411403 0 0 0 -48.5764,-1.817641 C 144.64352,9.492906 115.9064,0.79607797 95.97933,16.894836 A 23.968031,26.889907 0 0 0 77.00877,14.119347 c -1.250017,0.337166 -9.330245,2.749107 -13.211818,9.568567 -6.024456,-0.110423 -20.785088,1.977042 -27.639677,22.893805 A 22.02115,24.705681 0 0 0 25.685028,56.773782 c -3.484351,6.676798 -4.128959,15.124415 -1.92162,25.116139 -0.826677,4.097737 -3.093238,18.849799 4.114155,30.686659 4.8781,8.00783 12.920001,12.86005 23.921863,14.43739 2.613272,3.96475 10.083742,12.90009 24.407935,12.90009 A 45.658165,51.224211 0 0 0 86.546335,138.496 c 0.38241,9.01061 3.669947,24.54643 19.409595,38.82739 -22.184018,2.6963 -32.462889,-12.54139 -32.927168,-13.24604 a 3.4843594,3.9091261 0 0 0 -4.729145,-0.99291 24.502872,27.489954 0 0 1 -14.044583,4.51604 19.610841,22.001538 0 0 1 -12.456579,-5.14149 c -8.987036,-8.55814 -4.039247,-21.08295 -3.832796,-21.59795 a 3.4843594,3.9091261 0 0 0 -3.218679,-5.56075 h -0.376309 -0.0305 a 18.300723,20.531705 0 0 1 -14.170894,-7.53287 18.001939,20.196503 0 0 1 -3.808401,-16.8004 23.427085,26.283011 0 0 1 0.979971,-3.90522 z"
     id="path1"
     style="stroke-width:0.922661" />
  <path
     d="m 171.65643,327.0401 a 4,4 0 0 0 4,4 h 15.858 a 4.015,4.015 0 0 0 0.757,-0.076 c 0.092,-0.018 0.177,-0.049 0.265,-0.073 a 3.857,3.857 0 0 0 0.455,-0.141 c 0.1,-0.04 0.2,-0.092 0.293,-0.141 a 3.7,3.7 0 0 0 0.371,-0.2 c 0.1,-0.065 0.2,-0.14 0.291,-0.214 0.073,-0.056 0.151,-0.1 0.221,-0.162 0.029,-0.026 0.049,-0.057 0.078,-0.084 a 4.212,4.212 0 0 0 0.293,-0.318 c 0.079,-0.092 0.16,-0.181 0.23,-0.279 a 3.836,3.836 0 0 0 0.2,-0.338 c 0.064,-0.111 0.131,-0.22 0.183,-0.335 0.052,-0.115 0.088,-0.238 0.13,-0.359 0.042,-0.121 0.087,-0.249 0.117,-0.378 0.03,-0.129 0.039,-0.237 0.056,-0.357 a 3.871,3.871 0 0 0 0.043,-0.429 c 0,-0.039 0.012,-0.076 0.012,-0.115 0,-0.082 -0.02,-0.159 -0.024,-0.24 a 4.12,4.12 0 0 0 -0.044,-0.43 3.739,3.739 0 0 0 -0.085,-0.366 3.782,3.782 0 0 0 -0.118,-0.38 3.68,3.68 0 0 0 -0.164,-0.362 c -0.056,-0.112 -0.112,-0.222 -0.179,-0.33 a 4.164,4.164 0 0 0 -0.253,-0.351 c -0.05,-0.063 -0.086,-0.134 -0.141,-0.195 -19.834,-22.361 -25,-66.73 -25.055,-67.175 a 4,4 0 0 0 -7.95,0.888 c 0.2,1.756 4.627,39.872 21.848,64.941 h -7.692 a 4,4 0 0 0 -3.996,3.999 z"
     id="path2" />
  <path
     d="m 123.35292,323.7081 -0.009,0.007 a 4.011,4.011 0 0 0 -0.609,0.5 c -0.081,0.081 -0.142,0.174 -0.215,0.26 a 3.952,3.952 0 0 0 -0.278,0.342 3.752,3.752 0 0 0 -0.179,0.33 2.16,2.16 0 0 0 -0.309,0.743 c -0.036,0.119 -0.083,0.233 -0.108,0.356 a 4.02,4.02 0 0 0 -0.079,0.782 v 0.012 c 0,0.065 0.016,0.126 0.019,0.191 a 3.985,3.985 0 0 0 0.059,0.585 c 0.025,0.128 0.072,0.248 0.109,0.372 a 2.669,2.669 0 0 0 0.393,0.9 c 0.032,0.055 0.052,0.113 0.088,0.167 l 0.008,0.011 c 0.013,0.019 0.028,0.035 0.04,0.053 a 4.025,4.025 0 0 0 0.405,0.49 c 0.033,0.035 0.067,0.07 0.1,0.1 a 3.985,3.985 0 0 0 0.529,0.437 l 0.051,0.03 a 3.93,3.93 0 0 0 0.559,0.3 c 0.045,0.02 0.089,0.042 0.136,0.061 a 3.979,3.979 0 0 0 0.637,0.2 c 0.05,0.011 0.1,0.018 0.151,0.027 a 3.99,3.99 0 0 0 0.708,0.072 h 28.488 a 4,4 0 0 0 0.755,-0.076 c 0.09,-0.017 0.175,-0.048 0.263,-0.071 a 3.922,3.922 0 0 0 0.455,-0.142 c 0.1,-0.039 0.193,-0.09 0.289,-0.137 a 4.112,4.112 0 0 0 0.374,-0.2 c 0.1,-0.063 0.19,-0.135 0.283,-0.206 0.072,-0.055 0.149,-0.1 0.218,-0.158 0.069,-0.058 0.124,-0.119 0.189,-0.177 v 0 c 10.813,-9.742 9.035,-29.447 8.953,-30.286 a 4,4 0 0 0 -7.962,0.77 c 0.414,4.381 0.151,16.5 -5.469,22.688 h -15.87 c 20.389,-21.254 20.05,-55.534 20.022,-57.1 v -53.686 a 4,4 0 0 0 -8,0 v 53.759 c 0.008,0.404 0.425,40.679 -25.194,57.694 z"
     id="path3" />
  <path
     d="m 77.835804,44.101897 a 4,4 0 1 0 0,8 h 0.012 a 4.0000228,4.0000228 0 1 0 0.027,-8 z"
     id="path4" />
  <path
     d="m 152.36,193.48827 a 4,4 0 0 0 4,-4 v -1.591 a 4,4 0 1 0 -8,0 v 1.591 a 4,4 0 0 0 4,4 z"
     id="path5" />
  <text
     xml:space="preserve"
     id="text25"
     style="white-space:pre;shape-inside:url(#rect25);display:inline;fill:#ffffff;fill-opacity:1" />
  <text
     xml:space="preserve"
     style="fill:#f13016;fill-opacity:1"
     x="97.009346"
     y="71.775696"
     id="text26"
     inkscape:highlight-color="#ff2442"><tspan
       sodipodi:role="line"
       id="tspan26"
       x="97.009346"
       y="71.775696">Alcorque sin árbol</tspan></text>
  <text
     xml:space="preserve"
     id="text27"
     style="white-space:pre;shape-inside:url(#rect27);display:inline;fill:#f13016;fill-opacity:1" />
</svg>
